<?xml version="1.0" encoding="utf-8"?>
<!-- Generator: Adobe Illustrator 25.4.1, SVG Export Plug-In . SVG Version: 6.00 Build 0)  -->
<svg version="1.1" id="Layer_1" xmlns="http://www.w3.org/2000/svg" xmlns:xlink="http://www.w3.org/1999/xlink" x="0px" y="0px"
	 viewBox="0 0 450.3 226.1" style="enable-background:new 0 0 450.3 226.1;" xml:space="preserve">
<style type="text/css">
	.st0{fill:#F9A11B;}
	.st1{fill:#231F20;}
</style>
<polygon class="st0" points="450.3,226.1 7.7,226.1 15.5,192.1 0,168.9 442.6,168.9 434.8,193.1 "/>
<path class="st1" d="M52.6,56.4c0,0,6.9-54,23.9-54.9c29.1-1.5,24.1,56.6-4.3,92.9c-0.7,21.7,0.2,45.8,7.2,46.4
	c0,0,17.6-4.8,28.9-50.6c0,0,0.7-4.1,3.7-3.9c2.6,0.4,1.7,4.3,1.7,4.3s-13,56.2-35.6,56.9C40,148.9,52.6,56.4,52.6,56.4z M70.8,11.7
	C73.4,8.5,79,5.2,79,5.2C72.5,2.6,70.8,11.7,70.8,11.7z M84.2,12.2C76.6,26.9,74,60.3,74,60.3s-0.9,8.5-1.5,19.8
	c8.5-13,14.5-31.9,15.4-44.3C88.8,23.4,87.9,14.8,84.2,12.2z"/>
<path class="st1" d="M191,92.9c-2.6,5.9-10.2,19.1-23.7,25.8c-2.2,14.1-8.7,28.2-25.8,28.9c-35.4,1.7-36.9-38.2-36.9-38.2
	c-0.4-19.8,6.5-30.2,11.7-35.2c5.4-21.1,22.1-20.6,22.1-20.6c23.7,0,28.4,35.6,28.4,35.6s1.5,9.1,1.1,20
	c7.2-4.6,13.5-11.5,17.4-19.3c0,0,2.2-4.3,5.2-3.5C193.6,87.5,191,92.9,191,92.9z M124.2,69.9c1.5-3.3,3.5-6.3,5.9-9.1
	C130,60.8,122.4,61.4,124.2,69.9z M156.3,122.4c-3.3,0.7-6.9,0.7-11.1,0.4c-8.2-0.9-14.1-3.7-18.7-7.4c1.1,10,4.1,25.4,14.3,26.5
	C140.9,142,151.3,137.6,156.3,122.4z M158,92c0,0-4.6-28.2-17.4-27.8c0,0-9.8,5.4-8,29.7c0,0,1.7,18.2,13.5,20.8
	c3.7,0.9,8,0.7,12.4-0.9C159.3,108.1,159.3,100.7,158,92z"/>
<path class="st1" d="M260.9,90.7c0,0-6.1,56.4-42.5,56.9c-39.7,1.5-38.9-44.1-31.3-67.5c0,0,7.8-29.7,31.5-26.3
	c18.7,3.7,22.6,15,15,31.9c-0.9,1.5-3.3,1.3-3.7-0.7c-1.5-11.1-5.6-23.4-11.1-23.2c-6.3,0.2-12.8,33.9-12.8,33.9
	c-3.9,20.4-0.4,43.4,11.5,44.9c0,0,26.3-2,38-50.4c0,0,0.7-4.1,3.7-3.9C261.8,86.8,260.9,90.7,260.9,90.7z M198.6,68.2
	c0,0,7.6-6.5,10.6-7.6C209.3,60.6,201.4,58.2,198.6,68.2z"/>
<path class="st1" d="M300.6,111.8c-5.4,15.6-14.8,36.7-26.5,35.8c-18.2-1.1-25.2-36.7-17.1-67.5c0,0,6.7-26.7,30.6-23.2
	c6.3,0.9,10.6,4.8,13.7,9.3c0.2-2.2,0.4-3.9,0.4-5.4c0.4-2.8,2.6-5.4,5.4-6.3c3-0.9,7.2-1.5,10.9,0.4c3.3,1.5,5,5.2,4.6,8.9
	c-2,15.4-9.1,76,0.9,77c0,0,11.3-2.2,23.2-50.6c0,0,0.7-4.1,3.5-3.9c2.8,0.4,2,4.3,2,4.3s-8.9,57.9-30,56.9
	C308.2,146.9,302.4,130.4,300.6,111.8z M268.1,69.2c0,0,6.7-6.3,9.1-6.9C277.2,62.3,268.5,61,268.1,69.2z M299.1,90.1
	c-1.5-11.5-5.6-25.4-11.3-25.2c-6.5,0.2-12.2,30.8-12.2,30.8c-5.2,34.3-0.2,43.8-0.2,43.8C285,138.7,296.3,100.3,299.1,90.1z"/>
<path class="st1" d="M347.3,56.4c0,0,6.9-54,23.9-54.9c29.1-1.5,24.1,56.6-4.3,92.9c-0.7,21.7,0.2,45.8,7.2,46.4
	c0,0,17.6-4.8,28.9-50.6c0,0,0.7-4.1,3.7-3.9c2.6,0.4,1.7,4.3,1.7,4.3s-13,56.2-35.6,56.9C334.7,148.9,347.3,56.4,347.3,56.4z
	 M365.5,11.7c2.6-3.3,8.2-6.5,8.2-6.5C367.3,2.6,365.5,11.7,365.5,11.7z M379,12.2c-7.6,14.8-10.2,48.2-10.2,48.2s-0.9,8.5-1.5,19.8
	c8.5-13,14.5-31.9,15.4-44.3C383.5,23.4,382.7,14.8,379,12.2z"/>
<path class="st1" d="M79.8,204.1h10.9c0.2,0.8,0.3,1.5,0.4,2.1c0.1,0.7,0.1,1.3,0.1,1.9c0,0.6,0,1.3-0.1,1.9s-0.2,1.4-0.4,2.2H70.1
	l0.1-29.8c0.8-0.2,1.7-0.3,2.5-0.4c0.8-0.1,1.6-0.1,2.4-0.1c0.7,0,1.5,0,2.4,0.1c0.8,0.1,1.7,0.2,2.5,0.4L79.8,204.1z"/>
<path class="st1" d="M120.4,200.4c0.4,1.6,1.2,2.7,2.2,3.3c1.1,0.7,2.5,1,4.2,1c1.1,0,2.4-0.1,3.7-0.4c1.4-0.3,2.7-0.7,4.1-1.2
	c0.5,1,1,2.2,1.4,3.6s0.6,2.8,0.7,4.3c-3.4,1.3-6.9,1.9-10.5,1.9c-2.8,0-5.1-0.4-7.1-1.2c-2-0.8-3.6-1.8-4.8-3.2
	c-1.2-1.4-2.2-3-2.8-4.9c-0.6-1.9-0.9-3.9-0.9-6.2c0-2.2,0.3-4.2,0.9-6.2c0.6-1.9,1.5-3.6,2.8-5c1.2-1.4,2.8-2.5,4.6-3.4
	c1.8-0.8,4-1.2,6.5-1.2c2,0,3.9,0.3,5.4,1c1.6,0.7,2.9,1.6,4.1,2.9c1.1,1.2,2,2.7,2.6,4.4c0.6,1.7,0.9,3.6,0.9,5.6c0,1,0,2-0.1,2.8
	c-0.1,0.8-0.2,1.5-0.3,2H120.4z M125,189.1c-1.2,0-2.3,0.4-3.2,1.2c-0.9,0.8-1.4,2-1.6,3.6h9.2c-0.1-1.3-0.5-2.5-1.2-3.4
	C127.5,189.5,126.4,189.1,125,189.1z"/>
<path class="st1" d="M174.2,212.9c-2.8,0-5.1-0.4-7.1-1.2c-1.9-0.8-3.5-2-4.8-3.4c-1.2-1.4-2.1-3.1-2.7-5c-0.6-1.9-0.8-4-0.8-6.2
	c0-2.1,0.3-4.1,1-6c0.7-1.9,1.7-3.5,3-4.9c1.3-1.4,3-2.5,4.9-3.3c2-0.8,4.2-1.2,6.8-1.2c1.3,0,2.8,0.2,4.4,0.5s3.4,0.8,5.3,1.6
	c0,0.7-0.1,1.3-0.2,1.8c-0.1,0.6-0.3,1.2-0.4,1.8s-0.4,1.2-0.6,1.9c-0.3,0.7-0.5,1.4-0.9,2.3c-1.3-0.5-2.5-0.9-3.6-1.2
	c-1.1-0.2-2.1-0.4-2.9-0.4c-1.3,0-2.3,0.2-3.2,0.6c-0.9,0.4-1.6,0.9-2.1,1.6c-0.5,0.7-0.9,1.4-1.2,2.3c-0.3,0.9-0.4,1.8-0.4,2.7
	c0,2.6,0.6,4.5,1.7,5.7c1.1,1.2,2.7,1.8,4.9,1.8h1v-8.5c1-0.2,1.8-0.3,2.6-0.4c0.8-0.1,1.5-0.1,2.2-0.1c1.3,0,2.9,0.2,4.8,0.5v14.6
	c-1.1,0.4-2.7,0.9-4.7,1.4C179.2,212.7,176.9,212.9,174.2,212.9z"/>
<path class="st1" d="M216.9,200.4c0.4,1.6,1.2,2.7,2.2,3.3c1.1,0.7,2.5,1,4.2,1c1.1,0,2.4-0.1,3.7-0.4c1.4-0.3,2.7-0.7,4.1-1.2
	c0.5,1,1,2.2,1.4,3.6c0.4,1.4,0.6,2.8,0.7,4.3c-3.4,1.3-6.9,1.9-10.5,1.9c-2.8,0-5.1-0.4-7.1-1.2c-2-0.8-3.6-1.8-4.8-3.2
	c-1.2-1.4-2.2-3-2.8-4.9c-0.6-1.9-0.9-3.9-0.9-6.2c0-2.2,0.3-4.2,0.9-6.2c0.6-1.9,1.5-3.6,2.8-5c1.2-1.4,2.8-2.5,4.6-3.4
	c1.8-0.8,4-1.2,6.5-1.2c2,0,3.9,0.3,5.4,1c1.6,0.7,2.9,1.6,4.1,2.9c1.1,1.2,2,2.7,2.6,4.4c0.6,1.7,0.9,3.6,0.9,5.6c0,1,0,2-0.1,2.8
	c-0.1,0.8-0.2,1.5-0.3,2H216.9z M221.5,189.1c-1.2,0-2.3,0.4-3.2,1.2c-0.9,0.8-1.4,2-1.6,3.6h9.2c-0.1-1.3-0.5-2.5-1.2-3.4
	C224,189.5,223,189.1,221.5,189.1z"/>
<path class="st1" d="M269,181.8c1.7,0,3.4,0.1,5.1,0.4c1.7,0.3,3.2,0.9,4.6,1.8c1.4,0.9,2.5,2.2,3.3,4c0.9,1.7,1.3,4,1.3,6.9v17.2
	c-1,0.2-1.9,0.3-2.7,0.4c-0.8,0.1-1.5,0.1-2.1,0.1c-0.7,0-1.4,0-2.2-0.1s-1.7-0.2-2.7-0.4V196c0-2-0.4-3.5-1.2-4.4
	c-0.8-0.9-1.9-1.3-3.5-1.3c-0.4,0-0.9,0-1.4,0.1c-0.5,0.1-0.8,0.2-0.9,0.2v21.6c-1,0.2-1.9,0.3-2.7,0.4s-1.5,0.1-2.1,0.1
	c-0.7,0-1.4,0-2.2-0.1c-0.8-0.1-1.7-0.2-2.7-0.4v-28.3c1.3-0.5,3-0.9,4.9-1.4C263.7,182.1,266.1,181.8,269,181.8z"/>
<path class="st1" d="M317,181.7c3.1,0,5.8,0.4,8,1.1c2.2,0.7,4,1.8,5.5,3.1c1.4,1.3,2.5,2.9,3.1,4.8c0.7,1.9,1,4,1,6.3
	c0,2.4-0.3,4.6-1,6.6c-0.7,2-1.7,3.6-3.2,5s-3.3,2.5-5.6,3.2s-5,1.1-8.3,1.1c-1.9,0-3.6-0.1-5-0.2c-1.5-0.1-3-0.3-4.6-0.5v-29.6
	c1.6-0.2,3.3-0.4,5.1-0.5C313.7,181.8,315.4,181.7,317,181.7z M316.5,204.7c0.2,0,0.4,0,0.6,0.1c0.2,0,0.6,0.1,1.1,0.1
	c2.2,0,3.8-0.6,4.8-1.8c1.1-1.2,1.6-3.2,1.6-6c0-2.5-0.5-4.3-1.6-5.4c-1-1.1-2.5-1.7-4.4-1.7c-0.5,0-0.9,0-1.3,0.1
	c-0.4,0-0.7,0.1-0.9,0.1V204.7z"/>
<path class="st1" d="M371.2,193.6c1.2,0.3,2.2,0.7,3.1,1.1c0.9,0.4,1.7,1,2.4,1.7c0.7,0.7,1.2,1.5,1.6,2.5c0.4,1,0.6,2.2,0.6,3.6
	c0,1.5-0.3,2.8-0.9,4.1c-0.6,1.3-1.5,2.4-2.7,3.3c-1.2,0.9-2.6,1.7-4.3,2.2c-1.7,0.5-3.7,0.8-5.9,0.8c-1.8,0-3.6-0.1-5.1-0.4
	c-1.6-0.3-3.2-0.7-5-1.4c0.2-2.6,0.9-5.3,2.1-8c1.2,0.6,2.5,1,3.9,1.3c1.3,0.3,2.7,0.4,4,0.4c0.5,0,0.9,0,1.4-0.1
	c0.5,0,0.9-0.1,1.3-0.3c0.4-0.1,0.7-0.3,1-0.5c0.2-0.2,0.4-0.5,0.4-0.9c0-0.5-0.3-0.9-0.8-1.1c-0.5-0.2-1.1-0.5-1.7-0.7l-3.9-1.1
	c-2-0.6-3.7-1.6-5.1-2.9c-1.3-1.4-2-3.3-2-5.7c0-1.5,0.3-2.9,0.9-4.1c0.6-1.2,1.5-2.3,2.6-3.1c1.1-0.9,2.4-1.5,4-2
	c1.5-0.5,3.2-0.7,5-0.7c1.5,0,3.1,0.2,4.8,0.5c1.7,0.3,3.4,0.7,5.1,1.3c-0.1,1.2-0.3,2.5-0.8,4c-0.4,1.4-0.9,2.6-1.4,3.7
	c-1-0.4-2.3-0.8-3.7-1.2c-1.5-0.3-2.8-0.5-4-0.5c-1.8,0-2.7,0.5-2.7,1.5c0,0.4,0.2,0.8,0.6,1c0.4,0.2,0.9,0.4,1.4,0.6L371.2,193.6z"
	/>
</svg>
